<svg data-v-0dd9719b="" version="1.0" xmlns="http://www.w3.org/2000/svg" xmlns:xlink="http://www.w3.org/1999/xlink" width="100%" height="100%" viewBox="0 0 340.000000 250.000000" preserveAspectRatio="xMidYMid meet" color-interpolation-filters="sRGB" style="margin: auto;"> <rect data-v-0dd9719b="" x="0" y="0" width="100%" height="100%" fill="#fff" fill-opacity="1" class="background"></rect> <rect data-v-0dd9719b="" x="0" y="0" width="100%" height="100%" fill="url(#watermark)" fill-opacity="1" class="watermarklayer"></rect> <g data-v-0dd9719b="" fill="#fbc600" class="icon-text-wrapper icon-svg-group iconsvg" transform="translate(46.644996643066406,95)"><g class="iconsvg-imagesvg" transform="translate(0,0)"><g><rect fill="#fbc600" fill-opacity="0" stroke-width="2" x="0" y="0" width="60" height="60" class="image-rect"></rect> <svg x="0" y="0" width="60" height="60" filtersec="colorsb9050003726" class="image-svg-svg primary" style="overflow: visible;"><svg version="1.1" id="cube" xmlns="http://www.w3.org/2000/svg" xmlns:xlink="http://www.w3.org/1999/xlink" x="0px" y="0px" viewBox="1.25 3.559999942779541 556.3699951171875 556.3699951171875" enable-background="new 0 0 559.58 563.5" xml:space="preserve">
<path fill="#FBC600" d="M279.43,3.56C125.8,3.56,1.25,128.1,1.25,281.74c0,153.63,124.55,278.19,278.18,278.19
	c153.64,0,278.19-124.56,278.19-278.19C557.62,128.1,433.07,3.56,279.43,3.56z M183.51,120.6c44.48,0,80.53,36.06,80.53,80.52
	c0,44.48-36.05,80.54-80.53,80.54s-80.53-36.06-80.53-80.54C102.98,156.67,139.03,120.6,183.51,120.6z M257.13,516.91
	c-121.63,0-220.24-98.6-220.24-220.23c0-121.65,29.17,48.09,171,34.59c66.53-6.33,102.58-42.73,142.88-89.14
	c51.93-59.79,126.61-19.73,126.61,54.55C477.38,418.3,378.77,516.91,257.13,516.91z"></path>
</svg></svg> <!----></g></g> <g transform="translate(67,5.375)"><g data-gra="path-name" fill-rule="" class="tp-name iconsvg-namesvg"><g transform="scale(1)"><g><path d="M2.69 5.08Q0 3.68 0 1.46L0 1.46Q0-0.76 2.34-5.4 4.67-10.05 8.59-16.07L8.59-16.07Q5.08-16.3 0-16.3L0-16.3Q1.4-20.1 6.78-20.1L6.78-20.1Q7.95-20.1 11.1-19.75L11.1-19.75Q17.64-29.21 23.31-35.7 28.98-42.18 30.85-42.18L30.85-42.18Q32.37-42.18 34.82-39.9L34.82-39.9Q33.65-39.03 31.4-32.63 29.15-26.23 27.43-18.61 25.71-10.98 25.71-6.31L25.71-6.31Q25.71-3.97 26.2-2.83 26.7-1.69 27.75-1.69L27.75-1.69Q29.21-1.69 31.2-3.83 33.18-5.96 35.52-10.4L35.52-10.4 36.57-9.29Q34.7-4.32 31.78-1.31 28.86 1.69 25.71 1.69L25.71 1.69Q23.02 1.69 21.79-0.64 20.56-2.98 20.56-7.36L20.56-7.36Q20.56-10.22 21.32-14.61L21.32-14.61Q18.34-15.07 12.97-15.72L12.97-15.72Q7.54-6.08 2.69 5.08L2.69 5.08ZM21.91-17.47Q22.96-22.38 24.65-27.63 26.35-32.89 28.1-37.04L28.1-37.04Q25.53-35 22.08-30.26 18.64-25.53 14.84-19.05L14.84-19.05 19.22-18.11Q20.97-17.64 21.91-17.47L21.91-17.47ZM64.85 5.43Q62.45 5.14 61.67 3.8 60.88 2.45 60.88 0.53L60.88 0.53Q60.88-0.23 60.93-0.64L60.93-0.64Q56.2 5.08 50.24 5.08L50.24 5.08Q46.91 5.08 44.17 3.33 41.42 1.58 39.81-1.75 38.21-5.08 38.21-9.58L38.21-9.58Q38.21-16.94 41.92-24.54 45.63-32.13 51.38-37.07 57.14-42.01 62.86-42.01L62.86-42.01Q66.43-42.01 68.12-40.05 69.81-38.09 69.81-35.11L69.81-35.11Q69.81-33.01 69.06-30.96 68.3-28.92 67.04-27.6 65.78-26.29 64.32-26.29L64.32-26.29Q63.56-26.29 62.98-26.73 62.4-27.17 61.87-28.22L61.87-28.22Q62.75-28.8 63.86-30.32 64.97-31.84 65.75-33.59 66.54-35.35 66.54-36.69L66.54-36.69Q66.54-37.92 65.75-38.68 64.97-39.44 63.39-39.44L63.39-39.44Q59.12-39.44 54.54-34.44 49.95-29.44 46.88-22.23 43.82-15.01 43.82-8.94L43.82-8.94Q43.82-5.49 44.87-2.95 45.92-0.41 47.7 0.93 49.48 2.28 51.65 2.28L51.65 2.28Q54.68 2.28 57.22-0.26 59.77-2.8 61.34-6.66 62.92-10.52 63.27-14.37L63.27-14.37Q60.41-14.96 57.02-14.96L57.02-14.96Q55.97-14.96 53.16-14.84L53.16-14.84Q53.69-16.88 54.83-17.85 55.97-18.81 57.84-18.81L57.84-18.81Q59.24-18.81 60.7-18.43 62.16-18.05 64.38-17.29L64.38-17.29Q66.84-16.36 68.59-16.01L68.59-16.01Q66.02-8.06 65.35-5.4 64.67-2.75 64.67-0.06L64.67-0.06 64.73 2.69Q64.85 4.32 64.85 5.43L64.85 5.43ZM84.65 5.08Q81.21 5.08 78.4 3.3 75.6 1.52 73.99-1.81 72.39-5.14 72.39-9.58L72.39-9.58Q72.39-16.94 76.1-24.54 79.81-32.13 85.76-37.07 91.72-42.01 97.97-42.01L97.97-42.01Q100.37-42.01 101.95-40.37L101.95-40.37Q101.01-40.49 100.25-40.49L100.25-40.49Q95.35-40.49 90.23-35.58 85.12-30.67 81.79-23.31 78.46-15.95 78.46-9.23L78.46-9.23Q78.46-4.21 80.48-0.96 82.49 2.28 86.7 2.28L86.7 2.28Q91.78 2.28 96.02-2.57 100.25-7.42 102.68-14.63 105.1-21.85 105.1-28.39L105.1-28.39Q105.1-31.61 104.49-34.21 103.88-36.81 102.47-36.81L102.47-36.81Q101.25-36.81 99.64-34.73 98.03-32.66 96.69-29.74 95.35-26.82 94.88-24.48L94.88-24.48Q91.2-25.24 91.2-27.87L91.2-27.87Q91.2-29.91 93.13-32.6 95.05-35.29 97.74-37.24 100.43-39.2 102.59-39.2L102.59-39.2Q105.69-39.2 106.91-35.29 108.14-31.37 108.14-26.29L108.14-26.29Q108.14-16.94 104.46-9.79 100.78-2.63 95.32 1.23 89.85 5.08 84.65 5.08L84.65 5.08ZM137.23 7.07Q135.07 7.07 131.86 3.42 128.65-0.23 125.43-5.37 122.22-10.52 119.94-15.13L119.94-15.13Q118.89-11.51 116.44-2.75L116.44-2.75 114.22 5.14Q112.41 5.14 110.97 4.18 109.54 3.21 109.54 1.75L109.54 1.75Q109.54 1.05 109.89-0.06 110.24-1.17 110.36-1.46L110.36-1.46Q114.86-15.13 117.4-22 119.94-28.86 124.67-39.67L124.67-39.67Q121.52-39.03 118.01-37.16L118.01-37.16Q117.66-37.04 117.14-36.78 116.61-36.51 116.38-36.51L116.38-36.51Q115.85-36.51 114.95-37.33 114.04-38.15 114.04-38.79L114.04-38.79Q117.55-40.19 120.99-41.13 124.44-42.06 128.12-42.06L128.12-42.06Q131.98-42.06 135.63-40.87 139.28-39.67 141.67-37.13 144.07-34.59 144.07-30.79L144.07-30.79Q144.07-25.76 140.07-22.96 136.07-20.16 131.07-19.16 126.08-18.17 121.93-18.05L121.93-18.05 123.45-15.66Q126.25-11.16 128.35-8.18 130.46-5.2 133.52-1.96 136.59 1.29 140.8 4.5L140.8 4.5Q140.56 5.61 139.43 6.34 138.29 7.07 137.23 7.07L137.23 7.07ZM121.29-19.81Q128.7-20.33 133.96-23.4 139.22-26.47 139.22-31.96L139.22-31.96Q139.22-36.11 136.24-38 133.26-39.9 128.76-40.02L128.76-40.02Q125.49-33.48 121.29-19.81L121.29-19.81ZM145.82 5.08Q143.14 3.68 143.14 1.46L143.14 1.46Q143.14-0.76 145.47-5.4 147.81-10.05 151.72-16.07L151.72-16.07Q148.22-16.3 143.14-16.3L143.14-16.3Q144.54-20.1 149.91-20.1L149.91-20.1Q151.08-20.1 154.24-19.75L154.24-19.75Q160.78-29.21 166.45-35.7 172.11-42.18 173.98-42.18L173.98-42.18Q175.5-42.18 177.96-39.9L177.96-39.9Q176.79-39.03 174.54-32.63 172.29-26.23 170.56-18.61 168.84-10.98 168.84-6.31L168.84-6.31Q168.84-3.97 169.34-2.83 169.83-1.69 170.89-1.69L170.89-1.69Q172.35-1.69 174.33-3.83 176.32-5.96 178.66-10.4L178.66-10.4 179.71-9.29Q177.84-4.32 174.92-1.31 172 1.69 168.84 1.69L168.84 1.69Q166.15 1.69 164.93-0.64 163.7-2.98 163.7-7.36L163.7-7.36Q163.7-10.22 164.46-14.61L164.46-14.61Q161.48-15.07 156.11-15.72L156.11-15.72Q150.67-6.08 145.82 5.08L145.82 5.08ZM165.04-17.47Q166.1-22.38 167.79-27.63 169.48-32.89 171.24-37.04L171.24-37.04Q168.67-35 165.22-30.26 161.77-25.53 157.97-19.05L157.97-19.05 162.36-18.11Q164.11-17.64 165.04-17.47L165.04-17.47Z" transform="translate(0, 42.18000030517578)"></path></g> <!----> <!----> <!----> <!----> <!----> <!----> <!----></g></g> <!----></g></g><defs v-gra="od"></defs></svg>